<svg width="99" height="110" viewBox="0 0 99 110" xmlns="http://www.w3.org/2000/svg">

  <!-- Main body: white so it shows on the dark site -->
  <g fill="white" transform="translate(0,110) scale(0.10000000149011612,-0.10000000149011612)">
    <path d="m158.631581,1058.868423c-8,-21 10,-168 29,-229c13,-45 13,-49 -9,-84c-38,-60 -61,-74 -101,-68l-36,6l20,-32c11,-18 41,-43 70,-57c28,-14 49,-29 47,-35c-5,-15 -68,-10 -104,8c-39,19 -40,13 -4,-44c30,-47 86,-91 140,-110c17,-6 32,-17 32,-25c0,-17 -37,-18 -77,-3l-28,10l31,-33c17,-18 55,-68 84,-111c58,-84 137,-162 206,-203l43,-25l48,28c97,57 211,190 280,328c65,129 121,335 126,459l2,60l-63,19l-62,19l6,64c6,52 4,65 -9,69c-15,6 -118,-41 -170,-77c-24,-17 -44,-20 -160,-20l-132,0l-84,51c-89,54 -115,61 -125,35zm729,-178c30,-13 34,-19 30,-43c-43,-252 -89,-382 -190,-538c-42,-65 -133,-164 -184,-199l-39,-27l-39,24c-59,39 -193,185 -193,211c0,16 67,13 83,-3c6,-6 14,-11 17,-11c9,0 34,192 28,210c-2,7 -24,20 -48,29c-41,15 -48,23 -82,91c-20,41 -36,76 -34,77c1,1 18,-2 38,-7c44,-13 121,-67 115,-83c-6,-18 -42,-15 -41,4c1,9 -13,23 -31,32l-33,16l24,-44c20,-34 34,-46 69,-58c49,-16 57,-8 34,35c-13,24 0,42 24,32c20,-7 37,-63 37,-119c0,-40 0,-40 -18,-18c-16,22 -17,20 -17,-74c0,-97 0,-98 27,-107c17,-6 41,-6 65,0l37,9l-4,50c-3,28 -4,72 -4,99l1,49l-18,-24l-19,-24l0,30c0,45 19,118 33,127c24,16 40,9 33,-14c-3,-13 -9,-33 -12,-45l-6,-22l49,18c38,13 53,25 71,59l24,43l-35,-17c-20,-9 -34,-23 -33,-33c1,-10 -7,-16 -18,-16c-64,0 25,77 111,96c54,12 54,13 52,48c-4,45 30,151 48,151c8,0 29,-6 48,-14z"/>
  </g>

  <!-- Nose triangle -->
  <path d="m44.233762,66.60373l0,-7.749989l5.249993,7.749989l-5.249993,0z" fill="#080c14"/>
  <path d="m55.233745,66.85373l0,-7.99999l-6.249988,7.99999l6.249988,0z" fill="#080c14"/>

  <!-- Mouth -->
  <path d="m48.42675,88.499012c-3.14371,-1.83696 -4.26771,-2.998981 -4.27682,-4.421517c-0.0083,-1.296807 1.37922,-2.548424 2.81714,-2.541204c0.71803,0.003614 2.25826,0.480907 2.80366,0.868834c0.2748,0.195455 0.40496,0.176186 1.01678,-0.150565c1.66513,-0.889272 3.29114,-0.907942 4.34421,-0.049865c1.68304,1.371379 1.37662,3.009062 -0.88084,4.707776c-1.2002,0.903136 -3.82116,2.505356 -4.09835,2.505356c-0.08435,0 -0.86095,-0.413471 -1.72578,-0.918815z" fill="#080c14"/>

  <!-- Ears (white highlights) -->
  <path transform="rotate(-22.469846725463867 24.291879653930668,17.298936843872067)" d="m22.648116,28.07274c-1.981907,-1.169871 -3.402473,-4.887113 -3.079635,-8.058594c0.203572,-1.999859 4.498419,-14.140401 4.873496,-13.776253c0.12242,0.118853 1.211804,2.949322 2.420853,6.289934c1.93677,5.351307 2.19827,6.34916 2.19827,8.388331c0,4.133314 -2.105787,7.518966 -4.634221,7.450833c-0.737833,-0.019885 -1.538276,-0.152297 -1.778763,-0.294249zm1.985647,-2.078905c0.065602,-0.535117 -0.087641,-0.796092 -0.467466,-0.796092c-0.86566,0 -2.066472,-1.722298 -2.334752,-3.34868c-0.286181,-1.734909 -1.044976,-1.941241 -1.157054,-0.314627c-0.215934,3.133904 3.595487,7.426772 3.959271,4.459398z" fill="white" stroke="white" stroke-width="1.5"/>
  <path transform="rotate(22.239171981811523 75.08139038085938,17.29893493652344)" d="m73.437622,28.07274c-1.981907,-1.169871 -3.402473,-4.887113 -3.079635,-8.058594c0.203571,-1.99986 4.498419,-14.140401 4.873495,-13.776253c0.12242,0.118853 1.211804,2.949322 2.420854,6.289934c1.93677,5.351307 2.19827,6.34916 2.19827,8.38833c0,4.133314 -2.105787,7.518967 -4.634221,7.450833c-0.737833,-0.019885 -1.538276,-0.152297 -1.778763,-0.294249zm1.985647,-2.078905c0.065602,-0.535117 -0.087641,-0.796091 -0.467466,-0.796091c-0.86566,0 -2.066472,-1.722298 -2.334751,-3.34868c-0.286182,-1.734909 -1.044976,-1.941241 -1.157054,-0.314627c-0.215934,3.133904 3.595487,7.426772 3.959271,4.459398z" fill="white" stroke="white" stroke-width="1.5"/>

  <!-- Eyes: replaced with clean, visible circles -->
  <ellipse cx="36.5" cy="47.9" rx="5.5" ry="6.5" fill="#080c14"/>
  <ellipse cx="62.5" cy="48.2" rx="5.5" ry="6.5" fill="#080c14"/>
  <!-- Pupils / highlights -->
  <circle cx="38" cy="46.5" r="1.8" fill="white"/>
  <circle cx="64" cy="46.8" r="1.8" fill="white"/>

</svg>
